<svg width="1598" height="745" viewBox="0 0 1598 745" fill="none" xmlns="http://www.w3.org/2000/svg">
<path d="M0 474H1600V534L0 745V474Z" fill="#EF2A82"/>
<path d="M0 -70H1600V517L0 728V-70Z" fill="#172755"/>
<mask id="mask0" mask-type="alpha" maskUnits="userSpaceOnUse" x="0" y="-81" width="1600" height="799">
<path d="M0 -80.9999H1600V506L0 717V-80.9999Z" fill="#172755"/>
</mask>
<g mask="url(#mask0)">
<g opacity="0.07">
<path d="M1832.47 193.986C1702.93 4.98705 1485.44 -119 1239 -119C841.907 -119 520 202.907 520 600C520 657.771 526.814 713.951 539.681 767.779L905.824 401.636C940.922 366.538 997.828 366.538 1032.93 401.636L1328.88 697.585L1832.47 193.986Z" fill="#8794BA"/>
<path d="M1917.93 362.734L1392.43 888.239C1357.33 923.338 1300.42 923.338 1265.32 888.239L969.375 592.29L611.104 950.562C734.1 1170.39 969.195 1319 1239 1319C1636.09 1319 1958 997.093 1958 600C1958 516.861 1943.89 437.017 1917.93 362.734Z" fill="#8794BA"/>
</g>
</g>
</svg>
