<svg width="80" height="107" viewBox="0 0 80 107" fill="none" xmlns="http://www.w3.org/2000/svg">
<rect width="80" height="80" rx="15"/>
<path d="M8.91784 102.084C8.46984 102.084 8.03784 101.992 7.62184 101.808C7.20584 101.616 6.85784 101.336 6.57784 100.968L7.53784 99.78C7.69784 99.996 7.88984 100.172 8.11384 100.308C8.34584 100.444 8.57384 100.512 8.79784 100.512C9.49384 100.512 9.84184 100.016 9.84184 99.024V93.48H11.5338V99C11.5338 101.056 10.6618 102.084 8.91784 102.084ZM17.1002 96.144H18.6602V102H17.1722V101.292H17.1362C16.7282 101.828 16.1442 102.096 15.3842 102.096C14.5682 102.096 13.8962 101.82 13.3682 101.268C12.8482 100.708 12.5882 99.98 12.5882 99.084C12.5882 98.204 12.8482 97.48 13.3682 96.912C13.8962 96.336 14.5562 96.048 15.3482 96.048C16.0762 96.048 16.6482 96.3 17.0642 96.804H17.1002V96.144ZM15.6722 100.692C16.0882 100.692 16.4402 100.544 16.7282 100.248C17.0162 99.952 17.1602 99.568 17.1602 99.096C17.1602 98.624 17.0202 98.232 16.7402 97.92C16.4602 97.608 16.1082 97.452 15.6842 97.452C15.2522 97.452 14.8922 97.604 14.6042 97.908C14.3162 98.204 14.1722 98.6 14.1722 99.096C14.1722 99.568 14.3122 99.952 14.5922 100.248C14.8722 100.544 15.2322 100.692 15.6722 100.692ZM27.1012 96.048C28.4772 96.048 29.1652 96.896 29.1652 98.592V102H27.5932V98.976C27.5932 97.96 27.2532 97.452 26.5732 97.452C26.2292 97.452 25.9412 97.596 25.7092 97.884C25.4852 98.164 25.3732 98.56 25.3732 99.072V102H23.8012V98.976C23.8012 97.96 23.4572 97.452 22.7692 97.452C22.4012 97.452 22.1012 97.596 21.8692 97.884C21.6452 98.164 21.5332 98.56 21.5332 99.072V102H19.9612V96.144H21.5332V96.924H21.5452C22.0092 96.34 22.5932 96.048 23.2972 96.048C24.1132 96.048 24.6932 96.36 25.0372 96.984H25.0612C25.5492 96.36 26.2292 96.048 27.1012 96.048ZM35.8804 99.012C35.8804 99.324 35.8684 99.512 35.8444 99.576H31.7284C31.8244 99.928 32.0044 100.204 32.2684 100.404C32.5324 100.604 32.8524 100.704 33.2284 100.704C33.7964 100.712 34.2644 100.492 34.6324 100.044L35.6524 100.992C35.0684 101.728 34.2244 102.096 33.1204 102.096C32.2484 102.096 31.5284 101.816 30.9604 101.256C30.3924 100.696 30.1084 99.964 30.1084 99.06C30.1084 98.18 30.3804 97.46 30.9244 96.9C31.4764 96.332 32.1724 96.048 33.0124 96.048C33.8604 96.048 34.5484 96.328 35.0764 96.888C35.6124 97.44 35.8804 98.148 35.8804 99.012ZM33.0604 97.428C32.7324 97.428 32.4524 97.516 32.2204 97.692C31.9884 97.868 31.8284 98.12 31.7404 98.448H34.3204C34.1444 97.768 33.7244 97.428 33.0604 97.428ZM38.7913 102.096C37.8713 102.096 37.0793 101.812 36.4153 101.244L37.1833 100.152C37.6633 100.608 38.2033 100.836 38.8033 100.836C39.0273 100.836 39.2033 100.792 39.3313 100.704C39.4593 100.616 39.5233 100.5 39.5233 100.356C39.5233 100.228 39.4473 100.12 39.2953 100.032C39.1433 99.944 38.8633 99.836 38.4553 99.708C37.8873 99.516 37.4433 99.28 37.1233 99C36.8113 98.712 36.6553 98.312 36.6553 97.8C36.6553 97.28 36.8553 96.86 37.2553 96.54C37.6553 96.212 38.1593 96.048 38.7673 96.048C39.5673 96.048 40.2793 96.292 40.9033 96.78L40.1473 97.932C39.7073 97.516 39.2393 97.308 38.7433 97.308C38.5993 97.308 38.4673 97.348 38.3473 97.428C38.2273 97.5 38.1673 97.608 38.1673 97.752C38.1673 97.864 38.2353 97.968 38.3713 98.064C38.5153 98.152 38.7433 98.256 39.0553 98.376C39.3753 98.496 39.6113 98.588 39.7633 98.652C39.9153 98.708 40.0953 98.796 40.3033 98.916C40.5113 99.028 40.6553 99.14 40.7353 99.252C40.8233 99.356 40.8993 99.496 40.9633 99.672C41.0353 99.848 41.0713 100.048 41.0713 100.272C41.0713 100.816 40.8753 101.256 40.4833 101.592C40.0993 101.928 39.5353 102.096 38.7913 102.096ZM49.0865 102.084C47.8625 102.084 46.8305 101.7 45.9905 100.932C45.1585 100.164 44.7425 99.108 44.7425 97.764C44.7425 96.5 45.1265 95.452 45.8945 94.62C46.6705 93.788 47.7345 93.372 49.0865 93.372C49.7105 93.372 50.3185 93.508 50.9105 93.78C51.5105 94.052 52.0345 94.46 52.4825 95.004L51.2465 96.06C50.6305 95.34 49.9105 94.98 49.0865 94.98C48.3345 94.98 47.7145 95.236 47.2265 95.748C46.7465 96.252 46.5065 96.924 46.5065 97.764C46.5065 98.556 46.7465 99.208 47.2265 99.72C47.7065 100.232 48.3265 100.488 49.0865 100.488C49.9425 100.488 50.6625 100.128 51.2465 99.408L52.4825 100.476C51.6185 101.548 50.4865 102.084 49.0865 102.084ZM53.4856 102V93.168H55.0576V102H53.4856ZM61.9383 99.012C61.9383 99.324 61.9263 99.512 61.9023 99.576H57.7863C57.8823 99.928 58.0623 100.204 58.3263 100.404C58.5903 100.604 58.9103 100.704 59.2863 100.704C59.8543 100.712 60.3223 100.492 60.6903 100.044L61.7103 100.992C61.1263 101.728 60.2823 102.096 59.1783 102.096C58.3063 102.096 57.5863 101.816 57.0183 101.256C56.4503 100.696 56.1663 99.964 56.1663 99.06C56.1663 98.18 56.4383 97.46 56.9823 96.9C57.5343 96.332 58.2303 96.048 59.0703 96.048C59.9183 96.048 60.6063 96.328 61.1343 96.888C61.6703 97.44 61.9383 98.148 61.9383 99.012ZM59.1183 97.428C58.7903 97.428 58.5103 97.516 58.2783 97.692C58.0463 97.868 57.8863 98.12 57.7983 98.448H60.3783C60.2023 97.768 59.7823 97.428 59.1183 97.428ZM67.1411 96.144H68.7011V102H67.2131V101.292H67.1771C66.7691 101.828 66.1851 102.096 65.4251 102.096C64.6091 102.096 63.9371 101.82 63.4091 101.268C62.8891 100.708 62.6291 99.98 62.6291 99.084C62.6291 98.204 62.8891 97.48 63.4091 96.912C63.9371 96.336 64.5971 96.048 65.3891 96.048C66.1171 96.048 66.6891 96.3 67.1051 96.804H67.1411V96.144ZM65.7131 100.692C66.1291 100.692 66.4811 100.544 66.7691 100.248C67.0571 99.952 67.2011 99.568 67.2011 99.096C67.2011 98.624 67.0611 98.232 66.7811 97.92C66.5011 97.608 66.1491 97.452 65.7251 97.452C65.2931 97.452 64.9331 97.604 64.6451 97.908C64.3571 98.204 64.2131 98.6 64.2131 99.096C64.2131 99.568 64.3531 99.952 64.6331 100.248C64.9131 100.544 65.2731 100.692 65.7131 100.692ZM73.3622 96.048C73.4262 96.048 73.4662 96.052 73.4822 96.06V97.764C73.3782 97.756 73.2422 97.752 73.0742 97.752C72.6022 97.752 72.2342 97.896 71.9702 98.184C71.7062 98.464 71.5742 98.828 71.5742 99.276V102H70.0022V96.144H71.5742V97.008H71.5862C72.0422 96.368 72.6342 96.048 73.3622 96.048Z" fill="#2D2D2D"/>
</svg>
