<svg width="80" height="107" viewBox="0 0 80 107" fill="none" xmlns="http://www.w3.org/2000/svg">
<rect width="80" height="80" rx="15"/>
<path d="M14.0127 102.084C13.5647 102.084 13.1327 101.992 12.7167 101.808C12.3007 101.616 11.9527 101.336 11.6727 100.968L12.6327 99.78C12.7927 99.996 12.9847 100.172 13.2087 100.308C13.4407 100.444 13.6687 100.512 13.8927 100.512C14.5887 100.512 14.9367 100.016 14.9367 99.024V93.48H16.6287V99C16.6287 101.056 15.7567 102.084 14.0127 102.084ZM22.195 96.144H23.755V102H22.267V101.292H22.231C21.823 101.828 21.239 102.096 20.479 102.096C19.663 102.096 18.991 101.82 18.463 101.268C17.943 100.708 17.683 99.98 17.683 99.084C17.683 98.204 17.943 97.48 18.463 96.912C18.991 96.336 19.651 96.048 20.443 96.048C21.171 96.048 21.743 96.3 22.159 96.804H22.195V96.144ZM20.767 100.692C21.183 100.692 21.535 100.544 21.823 100.248C22.111 99.952 22.255 99.568 22.255 99.096C22.255 98.624 22.115 98.232 21.835 97.92C21.555 97.608 21.203 97.452 20.779 97.452C20.347 97.452 19.987 97.604 19.699 97.908C19.411 98.204 19.267 98.6 19.267 99.096C19.267 99.568 19.407 99.952 19.687 100.248C19.967 100.544 20.327 100.692 20.767 100.692ZM28.8961 96.144H30.5281L27.3721 104.376H25.7641L26.7961 101.64L24.4681 96.144H26.1001L27.5401 99.768H27.5521L28.8961 96.144ZM36.9092 102.096C35.7012 102.096 34.6652 101.648 33.8012 100.752L34.8092 99.504C35.1132 99.856 35.4532 100.124 35.8292 100.308C36.2052 100.484 36.5732 100.572 36.9332 100.572C37.3332 100.572 37.6372 100.492 37.8452 100.332C38.0532 100.164 38.1572 99.944 38.1572 99.672C38.1572 99.376 38.0492 99.152 37.8332 99C37.6172 98.84 37.2292 98.664 36.6692 98.472C36.2852 98.336 35.9652 98.208 35.7092 98.088C35.4532 97.96 35.1892 97.792 34.9172 97.584C34.6452 97.376 34.4412 97.124 34.3052 96.828C34.1692 96.532 34.1012 96.192 34.1012 95.808C34.1012 95.128 34.3652 94.556 34.8932 94.092C35.4212 93.628 36.0692 93.388 36.8372 93.372C37.8772 93.364 38.8332 93.724 39.7052 94.452L38.7332 95.724C38.0612 95.164 37.4412 94.884 36.8732 94.884C36.5692 94.884 36.3212 94.96 36.1292 95.112C35.9452 95.264 35.8532 95.472 35.8532 95.736C35.8452 95.984 35.9452 96.184 36.1532 96.336C36.3612 96.48 36.7372 96.66 37.2812 96.876C38.1612 97.22 38.7372 97.484 39.0092 97.668C39.6172 98.084 39.9212 98.688 39.9212 99.48C39.9212 100.336 39.6172 100.988 39.0092 101.436C38.4012 101.876 37.7012 102.096 36.9092 102.096ZM44.469 96.048C45.909 96.048 46.629 96.86 46.629 98.484V102H45.057V98.88C45.057 98.36 44.961 97.992 44.769 97.776C44.585 97.56 44.301 97.452 43.917 97.452C43.485 97.452 43.145 97.588 42.897 97.86C42.657 98.124 42.537 98.512 42.537 99.024V102H40.965V93.168H42.537V96.852H42.561C43.041 96.316 43.677 96.048 44.469 96.048ZM53.3451 99.012C53.3451 99.324 53.3331 99.512 53.3091 99.576H49.1931C49.2891 99.928 49.4691 100.204 49.7331 100.404C49.9971 100.604 50.3171 100.704 50.6931 100.704C51.2611 100.712 51.7291 100.492 52.0971 100.044L53.1171 100.992C52.5331 101.728 51.6891 102.096 50.5851 102.096C49.7131 102.096 48.9931 101.816 48.4251 101.256C47.8571 100.696 47.5731 99.964 47.5731 99.06C47.5731 98.18 47.8451 97.46 48.3891 96.9C48.9411 96.332 49.6371 96.048 50.4771 96.048C51.3251 96.048 52.0131 96.328 52.5411 96.888C53.0771 97.44 53.3451 98.148 53.3451 99.012ZM50.5251 97.428C50.1971 97.428 49.9171 97.516 49.6851 97.692C49.4531 97.868 49.2931 98.12 49.2051 98.448H51.7851C51.6091 97.768 51.1891 97.428 50.5251 97.428ZM56.184 102.096C55.664 102.096 55.256 101.932 54.96 101.604C54.664 101.276 54.516 100.792 54.516 100.152V97.44H53.82V96.144H54.516V94.224L56.076 94.056V96.144H57.672V97.44H56.076V99.936C56.076 100.432 56.248 100.68 56.592 100.68C56.816 100.68 57.064 100.612 57.336 100.476L57.744 101.736C57.296 101.976 56.776 102.096 56.184 102.096ZM60.526 102.096C60.006 102.096 59.598 101.932 59.302 101.604C59.006 101.276 58.858 100.792 58.858 100.152V97.44H58.162V96.144H58.858V94.224L60.418 94.056V96.144H62.014V97.44H60.418V99.936C60.418 100.432 60.59 100.68 60.934 100.68C61.158 100.68 61.406 100.612 61.678 100.476L62.086 101.736C61.638 101.976 61.118 102.096 60.526 102.096ZM66.7786 96.144H68.4106L65.2546 104.376H63.6466L64.6786 101.64L62.3506 96.144H63.9826L65.4226 99.768H65.4346L66.7786 96.144Z" fill="#2D2D2D"/>
</svg>
