<svg width="80" height="107" viewBox="0 0 80 107" fill="none" xmlns="http://www.w3.org/2000/svg">
<rect width="80" height="80" rx="15"/>
<path d="M12.013 102V93.48H15.169C16.161 93.48 16.901 93.74 17.389 94.26C17.885 94.772 18.133 95.456 18.133 96.312C18.133 97.224 17.853 97.916 17.293 98.388C16.741 98.852 15.981 99.084 15.013 99.084H13.681V102H12.013ZM13.681 97.584H14.797C15.317 97.584 15.709 97.468 15.973 97.236C16.245 97.004 16.381 96.684 16.381 96.276C16.381 95.876 16.249 95.56 15.985 95.328C15.721 95.096 15.349 94.98 14.869 94.98H13.681V97.584ZM24.4952 99.012C24.4952 99.324 24.4832 99.512 24.4592 99.576H20.3432C20.4392 99.928 20.6192 100.204 20.8832 100.404C21.1472 100.604 21.4672 100.704 21.8432 100.704C22.4112 100.712 22.8792 100.492 23.2472 100.044L24.2672 100.992C23.6832 101.728 22.8392 102.096 21.7352 102.096C20.8632 102.096 20.1432 101.816 19.5752 101.256C19.0072 100.696 18.7232 99.964 18.7232 99.06C18.7232 98.18 18.9952 97.46 19.5392 96.9C20.0912 96.332 20.7872 96.048 21.6272 96.048C22.4752 96.048 23.1632 96.328 23.6912 96.888C24.2272 97.44 24.4952 98.148 24.4952 99.012ZM21.6752 97.428C21.3472 97.428 21.0672 97.516 20.8352 97.692C20.6032 97.868 20.4432 98.12 20.3552 98.448H22.9352C22.7592 97.768 22.3392 97.428 21.6752 97.428ZM27.334 102.096C26.814 102.096 26.406 101.932 26.11 101.604C25.814 101.276 25.666 100.792 25.666 100.152V97.44H24.97V96.144H25.666V94.224L27.226 94.056V96.144H28.822V97.44H27.226V99.936C27.226 100.432 27.398 100.68 27.742 100.68C27.966 100.68 28.214 100.612 28.486 100.476L28.894 101.736C28.446 101.976 27.926 102.096 27.334 102.096ZM34.9136 99.012C34.9136 99.324 34.9016 99.512 34.8776 99.576H30.7616C30.8576 99.928 31.0376 100.204 31.3016 100.404C31.5656 100.604 31.8856 100.704 32.2616 100.704C32.8296 100.712 33.2976 100.492 33.6656 100.044L34.6856 100.992C34.1016 101.728 33.2576 102.096 32.1536 102.096C31.2816 102.096 30.5616 101.816 29.9936 101.256C29.4256 100.696 29.1416 99.964 29.1416 99.06C29.1416 98.18 29.4136 97.46 29.9576 96.9C30.5096 96.332 31.2056 96.048 32.0456 96.048C32.8936 96.048 33.5816 96.328 34.1096 96.888C34.6456 97.44 34.9136 98.148 34.9136 99.012ZM32.0936 97.428C31.7656 97.428 31.4856 97.516 31.2536 97.692C31.0216 97.868 30.8616 98.12 30.7736 98.448H33.3536C33.1776 97.768 32.7576 97.428 32.0936 97.428ZM39.2885 96.048C39.3525 96.048 39.3925 96.052 39.4085 96.06V97.764C39.3045 97.756 39.1685 97.752 39.0005 97.752C38.5285 97.752 38.1605 97.896 37.8965 98.184C37.6325 98.464 37.5005 98.828 37.5005 99.276V102H35.9285V96.144H37.5005V97.008H37.5125C37.9685 96.368 38.5605 96.048 39.2885 96.048ZM45.0088 102V94.992H42.6568V93.48H49.0528V94.992H46.6888V102H45.0088ZM53.4547 96.048C54.8947 96.048 55.6147 96.86 55.6147 98.484V102H54.0427V98.88C54.0427 98.36 53.9467 97.992 53.7547 97.776C53.5707 97.56 53.2867 97.452 52.9027 97.452C52.4707 97.452 52.1307 97.588 51.8827 97.86C51.6427 98.124 51.5227 98.512 51.5227 99.024V102H49.9507V93.168H51.5227V96.852H51.5467C52.0267 96.316 52.6627 96.048 53.4547 96.048ZM57.7348 95.316C57.4708 95.316 57.2428 95.224 57.0508 95.04C56.8588 94.848 56.7628 94.62 56.7628 94.356C56.7628 94.092 56.8588 93.868 57.0508 93.684C57.2428 93.492 57.4708 93.396 57.7348 93.396C58.0068 93.396 58.2388 93.492 58.4308 93.684C58.6228 93.868 58.7188 94.092 58.7188 94.356C58.7188 94.62 58.6228 94.848 58.4308 95.04C58.2388 95.224 58.0068 95.316 57.7348 95.316ZM56.9428 102V96.144H58.5148V102H56.9428ZM65.3955 99.012C65.3955 99.324 65.3835 99.512 65.3595 99.576H61.2435C61.3395 99.928 61.5195 100.204 61.7835 100.404C62.0475 100.604 62.3675 100.704 62.7435 100.704C63.3115 100.712 63.7795 100.492 64.1475 100.044L65.1675 100.992C64.5835 101.728 63.7395 102.096 62.6355 102.096C61.7635 102.096 61.0435 101.816 60.4755 101.256C59.9075 100.696 59.6235 99.964 59.6235 99.06C59.6235 98.18 59.8955 97.46 60.4395 96.9C60.9915 96.332 61.6875 96.048 62.5275 96.048C63.3755 96.048 64.0635 96.328 64.5915 96.888C65.1275 97.44 65.3955 98.148 65.3955 99.012ZM62.5755 97.428C62.2475 97.428 61.9675 97.516 61.7355 97.692C61.5035 97.868 61.3435 98.12 61.2555 98.448H63.8355C63.6595 97.768 63.2395 97.428 62.5755 97.428ZM66.4824 102V93.168H68.0544V102H66.4824Z" fill="#2D2D2D"/>
</svg>
