<svg width="80" height="107" viewBox="0 0 80 107" fill="none" xmlns="http://www.w3.org/2000/svg">
<rect width="80" height="80" rx="15"/>
<path d="M11.0665 102.084C9.84245 102.084 8.81045 101.7 7.97045 100.932C7.13845 100.164 6.72245 99.108 6.72245 97.764C6.72245 96.5 7.10645 95.452 7.87445 94.62C8.65045 93.788 9.71445 93.372 11.0665 93.372C11.6905 93.372 12.2985 93.508 12.8905 93.78C13.4905 94.052 14.0145 94.46 14.4625 95.004L13.2265 96.06C12.6105 95.34 11.8905 94.98 11.0665 94.98C10.3145 94.98 9.69445 95.236 9.20645 95.748C8.72645 96.252 8.48645 96.924 8.48645 97.764C8.48645 98.556 8.72645 99.208 9.20645 99.72C9.68645 100.232 10.3065 100.488 11.0665 100.488C11.9225 100.488 12.6425 100.128 13.2265 99.408L14.4625 100.476C13.5985 101.548 12.4665 102.084 11.0665 102.084ZM16.4684 95.316C16.2044 95.316 15.9764 95.224 15.7844 95.04C15.5924 94.848 15.4964 94.62 15.4964 94.356C15.4964 94.092 15.5924 93.868 15.7844 93.684C15.9764 93.492 16.2044 93.396 16.4684 93.396C16.7404 93.396 16.9724 93.492 17.1644 93.684C17.3564 93.868 17.4524 94.092 17.4524 94.356C17.4524 94.62 17.3564 94.848 17.1644 95.04C16.9724 95.224 16.7404 95.316 16.4684 95.316ZM15.6764 102V96.144H17.2484V102H15.6764ZM21.3691 102.096C20.4891 102.096 19.7651 101.816 19.1971 101.256C18.6371 100.696 18.3571 99.968 18.3571 99.072C18.3571 98.176 18.6411 97.448 19.2091 96.888C19.7851 96.328 20.5291 96.048 21.4411 96.048C21.9291 96.048 22.3931 96.144 22.8331 96.336C23.2731 96.528 23.6371 96.804 23.9251 97.164L22.8691 98.076C22.5091 97.66 22.0531 97.452 21.5011 97.452C21.0371 97.452 20.6611 97.604 20.3731 97.908C20.0851 98.204 19.9411 98.588 19.9411 99.06C19.9411 99.54 20.0851 99.932 20.3731 100.236C20.6691 100.54 21.0491 100.692 21.5131 100.692C22.0731 100.692 22.5291 100.492 22.8811 100.092L23.9491 101.04C23.6771 101.352 23.3171 101.608 22.8691 101.808C22.4291 102 21.9291 102.096 21.3691 102.096ZM30.2641 99.012C30.2641 99.324 30.2521 99.512 30.2281 99.576H26.1121C26.2081 99.928 26.3881 100.204 26.6521 100.404C26.9161 100.604 27.2361 100.704 27.6121 100.704C28.1801 100.712 28.6481 100.492 29.0161 100.044L30.0361 100.992C29.4521 101.728 28.6081 102.096 27.5041 102.096C26.6321 102.096 25.9121 101.816 25.3441 101.256C24.7761 100.696 24.4921 99.964 24.4921 99.06C24.4921 98.18 24.7641 97.46 25.3081 96.9C25.8601 96.332 26.5561 96.048 27.3961 96.048C28.2441 96.048 28.9321 96.328 29.4601 96.888C29.9961 97.44 30.2641 98.148 30.2641 99.012ZM27.4441 97.428C27.1161 97.428 26.8361 97.516 26.6041 97.692C26.3721 97.868 26.2121 98.12 26.1241 98.448H28.7041C28.5281 97.768 28.1081 97.428 27.4441 97.428ZM31.351 102V93.168H32.923V102H31.351ZM38.0782 96.144H39.7102L36.5542 104.376H34.9462L35.9782 101.64L33.6502 96.144H35.2822L36.7222 99.768H36.7342L38.0782 96.144ZM45.2873 102V94.992H42.9353V93.48H49.3313V94.992H46.9673V102H45.2873ZM53.284 96.144H54.916L51.76 104.376H50.152L51.184 101.64L48.856 96.144H50.488L51.928 99.768H51.94L53.284 96.144ZM57.4281 102.096C56.5081 102.096 55.7161 101.812 55.0521 101.244L55.8201 100.152C56.3001 100.608 56.8401 100.836 57.4401 100.836C57.6641 100.836 57.8401 100.792 57.9681 100.704C58.0961 100.616 58.1601 100.5 58.1601 100.356C58.1601 100.228 58.0841 100.12 57.9321 100.032C57.7801 99.944 57.5001 99.836 57.0921 99.708C56.5241 99.516 56.0801 99.28 55.7601 99C55.4481 98.712 55.2921 98.312 55.2921 97.8C55.2921 97.28 55.4921 96.86 55.8921 96.54C56.2921 96.212 56.7961 96.048 57.4041 96.048C58.2041 96.048 58.9161 96.292 59.5401 96.78L58.7841 97.932C58.3441 97.516 57.8761 97.308 57.3801 97.308C57.2361 97.308 57.1041 97.348 56.9841 97.428C56.8641 97.5 56.8041 97.608 56.8041 97.752C56.8041 97.864 56.8721 97.968 57.0081 98.064C57.1521 98.152 57.3801 98.256 57.6921 98.376C58.0121 98.496 58.2481 98.588 58.4001 98.652C58.5521 98.708 58.7321 98.796 58.9401 98.916C59.1481 99.028 59.2921 99.14 59.3721 99.252C59.4601 99.356 59.5361 99.496 59.6001 99.672C59.6721 99.848 59.7081 100.048 59.7081 100.272C59.7081 100.816 59.5121 101.256 59.1201 101.592C58.7361 101.928 58.1721 102.096 57.4281 102.096ZM63.4201 102.096C62.5001 102.096 61.7521 101.812 61.1761 101.244C60.6001 100.676 60.3121 99.952 60.3121 99.072C60.3121 98.192 60.6001 97.468 61.1761 96.9C61.7521 96.332 62.5001 96.048 63.4201 96.048C64.3321 96.048 65.0801 96.328 65.6641 96.888C66.2481 97.448 66.5401 98.176 66.5401 99.072C66.5401 99.968 66.2481 100.696 65.6641 101.256C65.0801 101.816 64.3321 102.096 63.4201 102.096ZM63.4201 100.692C63.8521 100.692 64.2121 100.54 64.5001 100.236C64.7961 99.932 64.9441 99.544 64.9441 99.072C64.9441 98.592 64.8001 98.204 64.5121 97.908C64.2241 97.604 63.8601 97.452 63.4201 97.452C62.9721 97.452 62.6041 97.608 62.3161 97.92C62.0361 98.224 61.8961 98.608 61.8961 99.072C61.8961 99.528 62.0401 99.912 62.3281 100.224C62.6161 100.536 62.9801 100.692 63.4201 100.692ZM71.024 96.048C72.448 96.048 73.16 96.872 73.16 98.52V102H71.588V98.916C71.588 98.38 71.496 98.004 71.312 97.788C71.128 97.564 70.844 97.452 70.46 97.452C70.052 97.452 69.728 97.592 69.488 97.872C69.248 98.144 69.128 98.536 69.128 99.048V102H67.556V96.144H69.128V96.9H69.152C69.632 96.332 70.256 96.048 71.024 96.048Z" fill="#2D2D2D"/>
</svg>
